<?xml version="1.0" encoding="utf-8"?>
<!-- Generator: Adobe Illustrator 17.0.0, SVG Export Plug-In . SVG Version: 6.00 Build 0)  -->
<!DOCTYPE svg PUBLIC "-//W3C//DTD SVG 1.1//EN" "http://www.w3.org/Graphics/SVG/1.1/DTD/svg11.dtd">
<svg version="1.1" id="Layer_1" xmlns="http://www.w3.org/2000/svg" xmlns:xlink="http://www.w3.org/1999/xlink" x="0px" y="0px"
	 width="50px" height="50px" viewBox="0 0 50 50" enable-background="new 0 0 50 50" xml:space="preserve">
<path fill="#020202" d="M25.221,8.625c-7.352,0-13.313,5.96-13.313,13.313c0,7.352,5.96,13.313,13.313,13.313
	c7.352,0,13.313-5.96,13.313-13.313C38.533,14.585,32.573,8.625,25.221,8.625z M30.86,27.181c-2.997,0-4.968-2.135-4.968-4.927
	v-0.027c0-0.204,0.013-0.405,0.036-0.603l-0.711-1.735l-1.298,3.168h0.003l-1.097,2.7l0,0l-0.566,1.39h-2.16h-0.031h-2.118v-7.788
	h-3.556v-1.982h9.523l-0.844,1.982h-2.973v7.715l4.156-9.767h1.982l0.752,1.767c0.88-1.093,2.232-1.802,3.844-1.802
	c1.67,0,2.696,0.465,3.682,1.3l-1.068,1.273c-0.739-0.63-1.464-1.027-2.682-1.027c-1.766,0-3.107,1.547-3.107,3.381v0.027
	c0,1.971,1.3,3.422,3.258,3.422c0.903,0,1.725-0.287,2.313-0.725V23.13h-2.45l1.08-1.465h2.999v4.024
	C33.912,26.496,32.557,27.181,30.86,27.181z"/>
</svg>
