<?xml version="1.0" encoding="utf-8"?>
<!-- Generator: Adobe Illustrator 17.0.0, SVG Export Plug-In . SVG Version: 6.00 Build 0)  -->
<!DOCTYPE svg PUBLIC "-//W3C//DTD SVG 1.1//EN" "http://www.w3.org/Graphics/SVG/1.1/DTD/svg11.dtd">
<svg version="1.1" id="Layer_1" xmlns="http://www.w3.org/2000/svg" xmlns:xlink="http://www.w3.org/1999/xlink" x="0px" y="0px"
	 width="50.942px" height="50.942px" viewBox="0 0 78.942 78.942" enable-background="new 0 0 78.942 78.942" xml:space="preserve">
<g>
	<circle fill="#F65E01" cx="39.471" cy="39.471" r="39.471"/>
	<g>
		<g>
			<path fill="#969696" d="M52.143,57.124c-0.448,0.559-1.018,1.012-1.711,1.359c-0.693,0.347-1.308,0.52-1.845,0.52
				c-0.313,0-0.704,0.006-1.174,0.017c-0.469,0.012-0.956,0.022-1.459,0.034c-0.503,0.012-0.989,0.022-1.459,0.034
				c-0.47,0.012-0.861,0.017-1.174,0.017c-1.431,0-2.924,0.117-4.478,0.352c-1.555,0.235-3.103,0.537-4.646,0.906
				c-1.543,0.369-3.069,0.76-4.579,1.174c-1.51,0.413-2.935,0.805-4.277,1.174c-1.342,0.369-2.589,0.671-3.74,0.906
				c-1.152,0.235-2.142,0.352-2.969,0.352c-1.342,0-2.387-0.307-3.136-0.922c-0.75-0.615-1.146-1.348-1.191-2.197
				c-0.045-0.537-0.045-1.174,0-1.912c0.045-0.738,0.134-1.543,0.268-2.415c0.134-0.872,0.291-1.795,0.47-2.767
				c0.179-0.973,0.38-1.963,0.604-2.969c0.134-0.671,0.307-1.543,0.52-2.616c0.212-1.074,0.419-2.197,0.62-3.371
				c0.201-1.174,0.391-2.314,0.57-3.422c0.179-1.107,0.324-2.018,0.436-2.734c0.246-1.632,0.475-3.103,0.688-4.411
				c0.212-1.308,0.413-2.566,0.604-3.774c0.19-1.208,0.374-2.432,0.553-3.673c0.179-1.241,0.346-2.633,0.503-4.176
				c0.134-1.677,0.229-3.175,0.285-4.495c0.056-1.319,0.201-2.432,0.436-3.338c0.235-0.906,0.615-1.599,1.14-2.08
				c0.525-0.481,1.336-0.721,2.432-0.721c0.626,0,1.146,0.123,1.56,0.369c0.414,0.246,0.755,0.57,1.023,0.973
				c0.268,0.402,0.469,0.861,0.604,1.375c0.134,0.515,0.223,1.029,0.268,1.543c0.022,0.157-0.05,0.66-0.218,1.51
				c-0.168,0.85-0.386,1.907-0.654,3.17c-0.269,1.264-0.57,2.667-0.906,4.21c-0.335,1.543-0.666,3.109-0.99,4.696
				c-0.324,1.588-0.626,3.125-0.906,4.612c-0.28,1.488-0.498,2.79-0.654,3.908c-0.134,0.984-0.297,2.041-0.486,3.17
				c-0.19,1.13-0.386,2.27-0.587,3.421c-0.201,1.152-0.402,2.298-0.604,3.438c-0.201,1.14-0.38,2.208-0.537,3.203
				c-0.157,0.995-0.274,1.89-0.352,2.684c-0.079,0.794-0.095,1.426-0.05,1.895c0.045,0.402,0.212,0.771,0.503,1.107
				c0.29,0.335,0.682,0.503,1.174,0.503c0.537,0,1.213-0.072,2.029-0.218c0.816-0.145,1.688-0.335,2.617-0.57
				c0.928-0.235,1.873-0.492,2.834-0.771c0.961-0.28,1.878-0.542,2.751-0.789c0.201-0.067,0.587-0.162,1.157-0.285
				c0.57-0.123,1.229-0.263,1.979-0.419c0.749-0.156,1.548-0.313,2.398-0.47c0.85-0.156,1.649-0.302,2.398-0.436
				c0.749-0.134,1.414-0.246,1.996-0.335c0.581-0.089,0.984-0.134,1.207-0.134c0.291,0,0.699-0.034,1.224-0.1
				c0.525-0.067,1.124-0.123,1.795-0.168c0.671-0.044,1.397-0.067,2.18-0.067c0.783,0,1.565,0.079,2.348,0.235
				c0.402,0.09,0.704,0.285,0.906,0.587c0.201,0.302,0.313,0.654,0.335,1.056c0.022,0.403-0.022,0.805-0.134,1.208
				C52.534,56.487,52.367,56.834,52.143,57.124z"/>
		</g>
		<g>
			<path fill="#969696" d="M70.188,45.758c0,0.783-0.269,1.643-0.805,2.583c-0.537,0.939-1.325,1.817-2.365,2.633
				c-1.04,0.817-2.331,1.498-3.874,2.046c-1.543,0.548-3.31,0.822-5.3,0.822c-2.013,0-3.791-0.352-5.334-1.056
				c-1.543-0.705-2.846-1.806-3.908-3.304c-1.062-1.498-1.868-3.399-2.415-5.703c-0.548-2.303-0.822-5.054-0.822-8.252
				c-0.358,0.224-0.884,0.677-1.577,1.358c-0.693,0.683-1.471,1.488-2.331,2.415c-0.861,0.929-1.756,1.929-2.684,3.002
				c-0.928,1.074-1.811,2.108-2.65,3.103c-0.839,0.995-1.588,1.918-2.247,2.767c-0.66,0.85-1.146,1.51-1.459,1.979
				c-0.559,0.85-1.006,1.56-1.342,2.13c-0.335,0.57-0.649,1.029-0.939,1.375c-0.291,0.347-0.599,0.593-0.923,0.738
				c-0.324,0.146-0.744,0.218-1.258,0.218c-0.47,0-0.906-0.072-1.308-0.218c-0.402-0.145-0.749-0.335-1.04-0.57
				c-0.291-0.235-0.515-0.497-0.671-0.788c-0.157-0.29-0.235-0.581-0.235-0.872c0-0.403,0.022-0.867,0.067-1.392
				c0.045-0.525,0.106-1.062,0.185-1.61c0.078-0.548,0.162-1.09,0.252-1.627c0.089-0.537,0.168-1.018,0.235-1.443
				c0.223-1.185,0.469-2.571,0.738-4.159c0.268-1.587,0.48-3.522,0.637-5.803c0.112-1.454,0.218-2.829,0.319-4.126
				c0.101-1.297,0.151-2.65,0.151-4.059c0-0.671,0.078-1.319,0.235-1.946c0.156-0.626,0.397-1.179,0.721-1.66
				c0.324-0.481,0.726-0.866,1.208-1.157c0.48-0.29,1.056-0.436,1.727-0.436c0.492,0,0.894,0.067,1.208,0.201
				c0.313,0.134,0.559,0.313,0.738,0.537c0.179,0.224,0.296,0.475,0.352,0.755c0.055,0.28,0.084,0.565,0.084,0.855
				c0,0.335-0.023,0.666-0.067,0.989c-0.045,0.324-0.067,0.61-0.067,0.856c0,0.067-0.034,0.318-0.101,0.755
				c-0.067,0.436-0.163,0.989-0.285,1.66c-0.123,0.671-0.268,1.421-0.436,2.247c-0.168,0.828-0.341,1.655-0.52,2.482
				c-0.38,1.722-0.654,3.103-0.822,4.143c-0.168,1.04-0.291,1.935-0.369,2.684c-0.079,0.749-0.134,1.448-0.168,2.097
				c-0.034,0.649-0.106,1.431-0.218,2.348c0.492-0.671,1.185-1.504,2.08-2.499c0.894-0.995,1.822-2.023,2.784-3.086
				c0.961-1.062,1.884-2.091,2.767-3.086c0.883-0.995,1.582-1.828,2.097-2.499c0.671-0.894,1.353-1.711,2.046-2.448
				c0.693-0.738,1.409-1.375,2.147-1.912c0.738-0.537,1.521-0.956,2.348-1.258c0.827-0.302,1.711-0.453,2.65-0.453
				c0.648,0,1.062,0.157,1.241,0.47c0.179,0.313,0.268,0.693,0.268,1.14c0,0.179-0.006,0.364-0.017,0.553
				c-0.012,0.19-0.017,0.375-0.017,0.553c0,0.179-0.034,0.498-0.101,0.956c-0.067,0.458-0.134,0.95-0.201,1.476
				c-0.067,0.525-0.129,1.023-0.184,1.493c-0.056,0.469-0.084,0.794-0.084,0.972c0,1.946,0.145,3.729,0.436,5.35
				c0.29,1.622,0.76,3.019,1.409,4.193c0.648,1.174,1.51,2.086,2.583,2.734c1.073,0.649,2.393,0.973,3.958,0.973
				c1.006,0,1.895-0.062,2.667-0.185c0.772-0.122,1.51-0.329,2.214-0.621c0.704-0.29,1.42-0.659,2.147-1.107
				c0.727-0.447,1.548-1.006,2.466-1.677c0.223-0.179,0.447-0.347,0.671-0.503c0.179-0.112,0.357-0.223,0.537-0.335
				c0.179-0.112,0.324-0.168,0.436-0.168L70.188,45.758z"/>
		</g>
		<circle fill="#969696" cx="70.325" cy="42.702" r="1.345"/>
		<g>
			<path fill="#969696" d="M70.121,40.816c-0.167-0.578-0.334-1.156-0.502-1.734c-0.094-0.322-0.192-0.642-0.285-0.964
				c-0.026-0.089-0.02-0.159,0.074-0.225c0.269-0.19,0.374-0.568,0.257-0.862c-0.119-0.298-0.428-0.486-0.772-0.421
				c-0.438,0.083-0.721,0.598-0.545,1.011c0.118,0.278,0.342,0.414,0.64,0.428c0.063,0.003,0.108-0.008,0.134,0.085
				c0.243,0.863,0.496,1.723,0.745,2.584c0.004,0.012,0.009,0.025,0.009,0.037c0.001,0.039,0.058,0.085-0.003,0.117
				c-0.066,0.035-0.068-0.038-0.091-0.067c-0.257-0.328-0.498-0.668-0.766-0.988c-0.53-0.633-1.061-1.261-1.763-1.715
				c-0.125-0.081-0.098-0.217-0.105-0.324c-0.051-0.79-0.088-1.58-0.13-2.371c-0.008-0.15,0.036-0.261,0.193-0.314
				c0.709-0.238,1.416-0.478,2.124-0.719c0.124-0.042,0.209-0.023,0.279,0.104c0.408,0.744,0.821,1.485,1.238,2.224
				c0.038,0.068,0.024,0.136,0.006,0.176c-0.366,0.812-0.462,1.684-0.573,2.551c-0.059,0.458-0.088,0.919-0.131,1.379
				C70.143,40.811,70.132,40.814,70.121,40.816z"/>
			<path fill="#969696" d="M66.843,33.659c0.245-0.112,0.558-0.185,0.862-0.286c0.328-0.109,0.655-0.221,0.976-0.351
				c0.276-0.112,0.519-0.05,0.641,0.162c0.176,0.306,0.151,0.627-0.07,0.794c-0.142,0.107-0.321,0.131-0.483,0.189
				c-0.494,0.178-0.996,0.336-1.495,0.501c-0.269,0.089-0.485,0.031-0.578-0.153C66.519,34.168,66.558,33.858,66.843,33.659z"/>
		</g>
	</g>
	<g>
		<g>
			<path fill="#FFFFFF" d="M53.143,56.124c-0.448,0.559-1.018,1.012-1.711,1.359c-0.693,0.347-1.308,0.52-1.845,0.52
				c-0.313,0-0.704,0.006-1.174,0.017c-0.469,0.012-0.956,0.022-1.459,0.034c-0.503,0.012-0.989,0.022-1.459,0.034
				c-0.47,0.012-0.861,0.017-1.174,0.017c-1.431,0-2.924,0.117-4.478,0.352c-1.555,0.235-3.103,0.537-4.646,0.906
				c-1.543,0.369-3.069,0.76-4.579,1.174c-1.51,0.413-2.935,0.805-4.277,1.174c-1.342,0.369-2.589,0.671-3.74,0.906
				c-1.152,0.235-2.142,0.352-2.969,0.352c-1.342,0-2.387-0.307-3.136-0.922c-0.75-0.615-1.146-1.348-1.191-2.197
				c-0.045-0.537-0.045-1.174,0-1.912c0.045-0.738,0.134-1.543,0.268-2.415c0.134-0.872,0.291-1.795,0.47-2.767
				c0.179-0.973,0.38-1.963,0.604-2.969c0.134-0.671,0.307-1.543,0.52-2.616c0.212-1.074,0.419-2.197,0.62-3.371
				c0.201-1.174,0.391-2.314,0.57-3.422c0.179-1.107,0.324-2.018,0.436-2.734c0.246-1.632,0.475-3.103,0.688-4.411
				c0.212-1.308,0.413-2.566,0.604-3.774c0.19-1.208,0.374-2.432,0.553-3.673c0.179-1.241,0.346-2.633,0.503-4.176
				c0.134-1.677,0.229-3.175,0.285-4.495c0.056-1.319,0.201-2.432,0.436-3.338c0.235-0.906,0.615-1.599,1.14-2.08
				c0.525-0.481,1.336-0.721,2.432-0.721c0.626,0,1.146,0.123,1.56,0.369c0.414,0.246,0.755,0.57,1.023,0.973
				c0.268,0.402,0.469,0.861,0.604,1.375c0.134,0.515,0.223,1.029,0.268,1.543c0.022,0.157-0.05,0.66-0.218,1.51
				c-0.168,0.85-0.386,1.907-0.654,3.17c-0.269,1.264-0.57,2.667-0.906,4.21c-0.335,1.543-0.666,3.109-0.99,4.696
				c-0.324,1.588-0.626,3.125-0.906,4.612c-0.28,1.488-0.498,2.79-0.654,3.908c-0.134,0.984-0.297,2.041-0.486,3.17
				c-0.19,1.13-0.386,2.27-0.587,3.421c-0.201,1.152-0.402,2.298-0.604,3.438c-0.201,1.14-0.38,2.208-0.537,3.203
				c-0.157,0.995-0.274,1.89-0.352,2.684c-0.079,0.794-0.095,1.426-0.05,1.895c0.045,0.402,0.212,0.771,0.503,1.107
				c0.29,0.335,0.682,0.503,1.174,0.503c0.537,0,1.213-0.072,2.029-0.218c0.816-0.145,1.688-0.335,2.617-0.57
				c0.928-0.235,1.873-0.492,2.834-0.771c0.961-0.28,1.878-0.542,2.751-0.789c0.201-0.067,0.587-0.162,1.157-0.285
				c0.57-0.123,1.229-0.263,1.979-0.419c0.749-0.156,1.548-0.313,2.398-0.47c0.85-0.156,1.649-0.302,2.398-0.436
				c0.749-0.134,1.414-0.246,1.996-0.335c0.581-0.089,0.984-0.134,1.207-0.134c0.291,0,0.699-0.034,1.224-0.1
				c0.525-0.067,1.124-0.123,1.795-0.168c0.671-0.044,1.397-0.067,2.18-0.067c0.783,0,1.565,0.079,2.348,0.235
				c0.402,0.09,0.704,0.285,0.906,0.587c0.201,0.302,0.313,0.654,0.335,1.056c0.022,0.403-0.022,0.805-0.134,1.208
				C53.534,55.487,53.367,55.834,53.143,56.124z"/>
		</g>
		<g>
			<path fill="#FFFFFF" d="M71.188,44.758c0,0.783-0.269,1.643-0.805,2.583c-0.537,0.939-1.325,1.817-2.365,2.633
				c-1.04,0.817-2.331,1.498-3.874,2.046c-1.543,0.548-3.31,0.822-5.3,0.822c-2.013,0-3.791-0.352-5.334-1.056
				c-1.543-0.705-2.846-1.806-3.908-3.304c-1.062-1.498-1.868-3.399-2.415-5.703c-0.548-2.303-0.822-5.054-0.822-8.252
				c-0.358,0.224-0.884,0.677-1.577,1.358c-0.693,0.683-1.471,1.488-2.331,2.415c-0.861,0.929-1.756,1.929-2.684,3.002
				c-0.928,1.074-1.811,2.108-2.65,3.103c-0.839,0.995-1.588,1.918-2.247,2.767c-0.66,0.85-1.146,1.51-1.459,1.979
				c-0.559,0.85-1.006,1.56-1.342,2.13c-0.335,0.57-0.649,1.029-0.939,1.375c-0.291,0.347-0.599,0.593-0.923,0.738
				c-0.324,0.146-0.744,0.218-1.258,0.218c-0.47,0-0.906-0.072-1.308-0.218c-0.402-0.145-0.749-0.335-1.04-0.57
				c-0.291-0.235-0.515-0.497-0.671-0.788c-0.157-0.29-0.235-0.581-0.235-0.872c0-0.403,0.022-0.867,0.067-1.392
				c0.045-0.525,0.106-1.062,0.185-1.61c0.078-0.548,0.162-1.09,0.252-1.627c0.089-0.537,0.168-1.018,0.235-1.443
				c0.223-1.185,0.469-2.571,0.738-4.159c0.268-1.587,0.48-3.522,0.637-5.803c0.112-1.454,0.218-2.829,0.319-4.126
				c0.101-1.297,0.151-2.65,0.151-4.059c0-0.671,0.078-1.319,0.235-1.946c0.156-0.626,0.397-1.179,0.721-1.66
				c0.324-0.481,0.726-0.866,1.208-1.157c0.48-0.29,1.056-0.436,1.727-0.436c0.492,0,0.894,0.067,1.208,0.201
				c0.313,0.134,0.559,0.313,0.738,0.537c0.179,0.224,0.296,0.475,0.352,0.755c0.055,0.28,0.084,0.565,0.084,0.855
				c0,0.335-0.023,0.666-0.067,0.989c-0.045,0.324-0.067,0.61-0.067,0.856c0,0.067-0.034,0.318-0.101,0.755
				c-0.067,0.436-0.163,0.989-0.285,1.66c-0.123,0.671-0.268,1.421-0.436,2.247c-0.168,0.828-0.341,1.655-0.52,2.482
				c-0.38,1.722-0.654,3.103-0.822,4.143c-0.168,1.04-0.291,1.935-0.369,2.684c-0.079,0.749-0.134,1.448-0.168,2.097
				c-0.034,0.649-0.106,1.431-0.218,2.348c0.492-0.671,1.185-1.504,2.08-2.499c0.894-0.995,1.822-2.023,2.784-3.086
				c0.961-1.062,1.884-2.091,2.767-3.086c0.883-0.995,1.582-1.828,2.097-2.499c0.671-0.894,1.353-1.711,2.046-2.448
				c0.693-0.738,1.409-1.375,2.147-1.912c0.738-0.537,1.521-0.956,2.348-1.258c0.827-0.302,1.711-0.453,2.65-0.453
				c0.648,0,1.062,0.157,1.241,0.47c0.179,0.313,0.268,0.693,0.268,1.14c0,0.179-0.006,0.364-0.017,0.553
				c-0.012,0.19-0.017,0.375-0.017,0.553c0,0.179-0.034,0.498-0.101,0.956c-0.067,0.458-0.134,0.95-0.201,1.476
				c-0.067,0.525-0.129,1.023-0.184,1.493c-0.056,0.469-0.084,0.794-0.084,0.972c0,1.946,0.145,3.729,0.436,5.35
				c0.29,1.622,0.76,3.019,1.409,4.193c0.648,1.174,1.51,2.086,2.583,2.734c1.073,0.649,2.393,0.973,3.958,0.973
				c1.006,0,1.895-0.062,2.667-0.185c0.772-0.122,1.51-0.329,2.214-0.621c0.704-0.29,1.42-0.659,2.147-1.107
				c0.727-0.447,1.548-1.006,2.466-1.677c0.223-0.179,0.447-0.347,0.671-0.503c0.179-0.112,0.357-0.223,0.537-0.335
				c0.179-0.112,0.324-0.168,0.436-0.168L71.188,44.758z"/>
		</g>
		<circle fill="#FFFFFF" cx="71.325" cy="41.702" r="1.345"/>
		<g>
			<path fill="#FFFFFF" d="M71.121,39.816c-0.167-0.578-0.334-1.156-0.502-1.734c-0.094-0.322-0.192-0.642-0.285-0.964
				c-0.026-0.089-0.02-0.159,0.074-0.225c0.269-0.19,0.374-0.568,0.257-0.862c-0.119-0.298-0.428-0.486-0.772-0.421
				c-0.438,0.083-0.721,0.598-0.545,1.011c0.118,0.278,0.342,0.414,0.64,0.428c0.063,0.003,0.108-0.008,0.134,0.085
				c0.243,0.863,0.496,1.723,0.745,2.584c0.004,0.012,0.009,0.025,0.009,0.037c0.001,0.039,0.058,0.085-0.003,0.117
				c-0.066,0.035-0.068-0.038-0.091-0.067c-0.257-0.328-0.498-0.668-0.766-0.988c-0.53-0.633-1.061-1.261-1.763-1.715
				c-0.125-0.081-0.098-0.217-0.105-0.324c-0.051-0.79-0.088-1.58-0.13-2.371c-0.008-0.15,0.036-0.261,0.193-0.314
				c0.709-0.238,1.416-0.478,2.124-0.719c0.124-0.042,0.209-0.023,0.279,0.104c0.408,0.744,0.821,1.485,1.238,2.224
				c0.038,0.068,0.024,0.136,0.006,0.176c-0.366,0.812-0.462,1.684-0.573,2.551c-0.059,0.458-0.088,0.919-0.131,1.379
				C71.143,39.811,71.132,39.814,71.121,39.816z"/>
			<path fill="#FFFFFF" d="M67.843,32.659c0.245-0.112,0.558-0.185,0.862-0.286c0.328-0.109,0.655-0.221,0.976-0.351
				c0.276-0.112,0.519-0.05,0.641,0.162c0.176,0.306,0.151,0.627-0.07,0.794c-0.142,0.107-0.321,0.131-0.483,0.189
				c-0.494,0.178-0.996,0.336-1.495,0.501c-0.269,0.089-0.485,0.031-0.578-0.153C67.519,33.168,67.558,32.858,67.843,32.659z"/>
		</g>
	</g>
</g>
</svg>
