
<svg version="1.1" id="Layer_1" xmlns="http://www.w3.org/2000/svg" xmlns:xlink="http://www.w3.org/1999/xlink" x="0px" y="0px"
	 width="86.626px" height="70.935px" viewBox="0 0 166.626 150.935" enable-background="new 0 0 166.626 150.935"
	 xml:space="preserve">
<g>
	<g>
		<path fill="#FFFFFF" d="M109.94,131.07c-1.3,1.624-2.955,2.938-4.967,3.944c-2.013,1.008-3.798,1.509-5.356,1.509
			c-0.91,0-2.045,0.017-3.408,0.049c-1.363,0.034-2.775,0.065-4.236,0.098c-1.46,0.034-2.872,0.065-4.236,0.098
			c-1.363,0.034-2.5,0.049-3.408,0.049c-4.155,0-8.488,0.34-13,1.023c-4.513,0.681-9.007,1.558-13.487,2.629
			c-4.479,1.07-8.91,2.206-13.292,3.408c-4.382,1.2-8.52,2.337-12.416,3.408c-3.895,1.07-7.515,1.947-10.858,2.629
			c-3.344,0.681-6.217,1.022-8.618,1.022c-3.895,0-6.931-0.893-9.105-2.677c-2.176-1.786-3.327-3.912-3.457-6.379
			c-0.131-1.558-0.131-3.408,0-5.551c0.129-2.142,0.389-4.478,0.779-7.011c0.389-2.532,0.843-5.21,1.363-8.033
			c0.519-2.824,1.103-5.697,1.753-8.618c0.389-1.948,0.892-4.48,1.51-7.595c0.616-3.117,1.217-6.379,1.801-9.787
			c0.584-3.408,1.135-6.719,1.656-9.933c0.518-3.213,0.94-5.857,1.266-7.935c0.713-4.738,1.378-9.008,1.996-12.806
			c0.616-3.797,1.2-7.449,1.753-10.955c0.551-3.506,1.087-7.06,1.607-10.663c0.519-3.603,1.006-7.644,1.461-12.124
			c0.389-4.869,0.665-9.217,0.828-13.049c0.161-3.83,0.584-7.06,1.266-9.689c0.681-2.629,1.785-4.641,3.311-6.037
			C23.971,0.698,26.324,0,29.506,0c1.817,0,3.326,0.358,4.528,1.071c1.201,0.715,2.191,1.655,2.971,2.824
			c0.779,1.168,1.363,2.5,1.753,3.992c0.389,1.495,0.648,2.987,0.779,4.48c0.064,0.455-0.146,1.915-0.633,4.382
			c-0.487,2.468-1.12,5.535-1.899,9.202c-0.779,3.669-1.656,7.742-2.629,12.221c-0.974,4.48-1.933,9.024-2.873,13.633
			c-0.941,4.61-1.818,9.072-2.629,13.389c-0.812,4.318-1.445,8.099-1.899,11.345c-0.389,2.857-0.861,5.925-1.412,9.202
			c-0.553,3.279-1.12,6.59-1.704,9.932c-0.584,3.344-1.168,6.671-1.753,9.982c-0.584,3.311-1.105,6.411-1.558,9.299
			c-0.455,2.889-0.796,5.487-1.023,7.79c-0.228,2.305-0.277,4.138-0.146,5.502c0.129,1.168,0.616,2.239,1.461,3.213
			c0.843,0.974,1.98,1.46,3.408,1.46c1.558,0,3.521-0.21,5.891-0.633c2.369-0.421,4.901-0.974,7.596-1.655
			c2.693-0.681,5.436-1.428,8.228-2.239c2.791-0.811,5.453-1.574,7.985-2.289c0.584-0.195,1.704-0.47,3.36-0.828
			c1.655-0.356,3.569-0.763,5.745-1.217c2.174-0.454,4.495-0.909,6.963-1.364c2.466-0.453,4.787-0.876,6.963-1.265
			c2.174-0.39,4.105-0.714,5.794-0.974c1.687-0.259,2.856-0.39,3.505-0.39c0.843,0,2.029-0.098,3.554-0.291
			c1.525-0.195,3.262-0.356,5.21-0.488c1.948-0.129,4.056-0.195,6.329-0.195c2.272,0,4.543,0.229,6.817,0.683
			c1.168,0.26,2.045,0.828,2.629,1.704c0.584,0.876,0.908,1.898,0.973,3.067c0.064,1.169-0.065,2.337-0.389,3.506
			C111.075,129.221,110.588,130.227,109.94,131.07z"/>
	</g>
	<g>
		<path fill="#FFFFFF" d="M162.324,98.074c0,2.273-0.779,4.771-2.337,7.498c-1.558,2.727-3.846,5.275-6.865,7.644
			c-3.019,2.37-6.768,4.35-11.247,5.94c-4.48,1.591-9.609,2.385-15.386,2.385c-5.843,0-11.004-1.022-15.484-3.067
			c-4.479-2.045-8.262-5.242-11.344-9.592c-3.084-4.348-5.422-9.867-7.011-16.554c-1.591-6.685-2.385-14.67-2.385-23.955
			c-1.04,0.65-2.565,1.964-4.577,3.943c-2.013,1.982-4.269,4.318-6.768,7.011c-2.5,2.695-5.097,5.6-7.79,8.715
			c-2.695,3.117-5.259,6.12-7.693,9.008c-2.435,2.889-4.61,5.567-6.524,8.033c-1.916,2.468-3.327,4.382-4.236,5.746
			c-1.624,2.468-2.922,4.527-3.895,6.184c-0.974,1.655-1.884,2.987-2.727,3.992c-0.844,1.008-1.738,1.72-2.678,2.142
			c-0.942,0.424-2.159,0.634-3.651,0.634c-1.363,0-2.629-0.21-3.798-0.634c-1.168-0.421-2.175-0.973-3.019-1.655
			c-0.844-0.681-1.494-1.444-1.947-2.288c-0.455-0.843-0.681-1.688-0.681-2.532c0-1.169,0.064-2.515,0.194-4.041
			c0.129-1.525,0.308-3.083,0.536-4.675c0.226-1.59,0.47-3.164,0.73-4.722c0.259-1.559,0.487-2.954,0.682-4.188
			c0.648-3.44,1.363-7.464,2.142-12.075c0.779-4.608,1.395-10.224,1.85-16.846c0.324-4.22,0.633-8.212,0.925-11.977
			c0.292-3.765,0.438-7.693,0.438-11.783c0-1.948,0.227-3.83,0.682-5.648c0.453-1.817,1.152-3.423,2.094-4.82
			c0.94-1.395,2.109-2.515,3.506-3.359c1.395-0.843,3.067-1.266,5.015-1.266c1.427,0,2.596,0.194,3.506,0.584
			c0.908,0.39,1.622,0.91,2.142,1.558c0.519,0.649,0.86,1.38,1.023,2.191c0.161,0.813,0.243,1.64,0.243,2.483
			c0,0.974-0.066,1.932-0.195,2.872c-0.131,0.942-0.194,1.77-0.194,2.484c0,0.194-0.098,0.925-0.292,2.191
			c-0.195,1.266-0.472,2.872-0.828,4.82c-0.358,1.948-0.779,4.124-1.266,6.524c-0.487,2.403-0.99,4.805-1.509,7.206
			c-1.105,5-1.899,9.007-2.386,12.026c-0.486,3.018-0.844,5.616-1.071,7.79c-0.228,2.175-0.389,4.203-0.487,6.086
			c-0.098,1.883-0.309,4.155-0.633,6.816c1.427-1.948,3.441-4.366,6.037-7.255c2.596-2.888,5.29-5.874,8.083-8.958
			c2.791-3.083,5.468-6.07,8.033-8.959c2.564-2.888,4.592-5.307,6.086-7.255c1.948-2.596,3.927-4.966,5.94-7.108
			c2.012-2.143,4.09-3.993,6.232-5.551c2.142-1.558,4.414-2.775,6.816-3.651c2.401-0.876,4.967-1.315,7.693-1.315
			c1.882,0,3.083,0.455,3.603,1.363c0.519,0.91,0.779,2.013,0.779,3.311c0,0.52-0.017,1.056-0.049,1.607
			c-0.034,0.553-0.049,1.088-0.049,1.607c0,0.521-0.098,1.446-0.292,2.776c-0.195,1.33-0.389,2.759-0.584,4.285
			c-0.194,1.525-0.374,2.969-0.535,4.333c-0.163,1.363-0.244,2.304-0.244,2.823c0,5.649,0.421,10.826,1.266,15.532
			c0.843,4.708,2.206,8.764,4.09,12.172c1.882,3.408,4.382,6.055,7.498,7.937c3.116,1.884,6.946,2.824,11.491,2.824
			c2.921,0,5.502-0.179,7.742-0.536c2.24-0.355,4.382-0.957,6.427-1.802c2.045-0.843,4.121-1.914,6.232-3.213
			c2.109-1.298,4.495-2.922,7.158-4.868c0.648-0.519,1.298-1.006,1.947-1.461c0.519-0.324,1.038-0.648,1.558-0.973
			c0.519-0.325,0.94-0.488,1.266-0.488L162.324,98.074z"/>
	</g>
	<circle fill="#FFFFFF" cx="162.722" cy="89.201" r="3.904"/>
	<g>
		<path fill="#FFFFFF" d="M162.128,83.727c-0.486-1.678-0.969-3.356-1.457-5.033c-0.272-0.934-0.556-1.864-0.827-2.798
			c-0.075-0.258-0.057-0.463,0.214-0.654c0.781-0.552,1.087-1.65,0.746-2.501c-0.347-0.866-1.243-1.411-2.242-1.221
			c-1.273,0.242-2.092,1.737-1.583,2.935c0.343,0.808,0.992,1.202,1.859,1.243c0.183,0.009,0.312-0.023,0.388,0.246
			c0.705,2.505,1.439,5.002,2.164,7.502c0.01,0.036,0.026,0.071,0.027,0.107c0.004,0.114,0.169,0.246-0.008,0.34
			c-0.192,0.102-0.197-0.109-0.264-0.194c-0.745-0.953-1.445-1.939-2.224-2.869c-1.538-1.837-3.08-3.66-5.117-4.979
			c-0.364-0.236-0.285-0.629-0.305-0.94c-0.149-2.292-0.256-4.587-0.378-6.882c-0.023-0.436,0.105-0.758,0.56-0.911
			c2.057-0.69,4.111-1.388,6.165-2.088c0.36-0.123,0.608-0.067,0.809,0.301c1.184,2.16,2.382,4.312,3.594,6.456
			c0.111,0.196,0.07,0.394,0.018,0.51c-1.063,2.356-1.34,4.887-1.663,7.405c-0.17,1.329-0.256,2.668-0.381,4.002
			C162.191,83.712,162.16,83.72,162.128,83.727z"/>
		<path fill="#FFFFFF" d="M152.614,62.949c0.711-0.324,1.621-0.537,2.503-0.829c0.953-0.316,1.902-0.642,2.833-1.02
			c0.801-0.325,1.506-0.145,1.859,0.47c0.511,0.888,0.438,1.822-0.202,2.304c-0.411,0.31-0.932,0.379-1.403,0.548
			c-1.435,0.516-2.891,0.977-4.34,1.456c-0.781,0.258-1.407,0.09-1.679-0.444C151.673,64.429,151.786,63.529,152.614,62.949z"/>
	</g>
</g>
</svg>
