<svg fill="#fff" version="1.1" id="Layer_1" xmlns="http://www.w3.org/2000/svg" xmlns:xlink="http://www.w3.org/1999/xlink" x="0px" y="0px"
	 width="110px" height="110px" viewBox="0 25 50 10" enable-background="new 0 15 40 20" xml:space="preserve">
<g>
	<g>
		<path  d="M41.152,27.343l-2.411,3.377h5.471v4.135c-1.314,1.01-3.148,1.673-5.166,1.673
			c-4.371,0-7.275-3.345-7.275-7.89v-0.063c0-4.229,2.996-7.796,6.939-7.796c2.72,0,4.34,0.915,5.991,2.367l2.384-2.935
			c-2.201-1.925-4.493-2.998-8.222-2.998c-3.602,0-6.621,1.635-8.586,4.155l-1.679-4.074h-4.426l-9.282,22.522V22.024h6.639
			l1.885-4.57H2.149v4.57h7.942v17.958h4.731h0.069h4.825l1.265-3.204l2.45-6.225h-0.006l2.899-7.305l1.587,4
			c-0.052,0.457-0.081,0.92-0.081,1.39v0.063c0,6.438,4.401,11.362,11.095,11.362c3.79,0,6.816-1.578,8.925-3.44v-9.279H41.152z"/>
	</g>
</g>
</svg>
