<?xml version="1.0" encoding="utf-8"?>
<!-- Generator: Adobe Illustrator 17.0.0, SVG Export Plug-In . SVG Version: 6.00 Build 0)  -->
<!DOCTYPE svg PUBLIC "-//W3C//DTD SVG 1.1//EN" "http://www.w3.org/Graphics/SVG/1.1/DTD/svg11.dtd">
<svg version="1.1" id="Layer_1" xmlns="http://www.w3.org/2000/svg" xmlns:xlink="http://www.w3.org/1999/xlink" x="0px" y="0px"
	 width="388px" height="387px" viewBox="0 0 388 387" enable-background="new 0 0 388 387" xml:space="preserve">
<path fill="#BCE2B9" d="M179,388c1-1.423,2-1.244,3,0C181,388,180,388,179,388z"/>
<g>
	<path fill="#82C97C" d="M175,388c-4.695-2.573-10.171-1.507-15.048-3.227c-2.725-3.001,0.459-4.049,2.003-5.108
		c5.08-3.483,10.596-6.273,15.939-9.335c56.341-32.285,112.478-64.923,168.837-97.175c7.369-4.217,14.714-8.482,22.039-12.778
		c1.867-1.095,3.727-2.279,5.859-2.737c1.147-0.246,2.855-0.748,2.513,1.608c-3.177,10.973-8.193,21.105-14.096,30.831
		c-10.048,4.144-18.987,10.311-28.357,15.674c-47.218,27.026-94.228,54.416-141.503,81.344c-0.436,0.248-0.833,0.546-1.185,0.903
		c-3.333,0-6.667,0-10,0c-1-0.75-2-0.75-3,0C177.667,388,176.333,388,175,388z"/>
	<path fill="#85CA78" d="M192,388c0.33-2.377,2.454-3.045,4.087-3.984c36.545-21.011,73.132-41.95,109.695-62.932
		c17.704-10.16,35.379-20.372,53.051-30.59c1.393-0.805,2.589-2.449,4.214-0.415c-6.95,13.163-15.679,25.019-26.152,35.594
		c-7.107,2.9-13.455,7.206-20.052,11.019c-25.366,14.658-50.817,29.171-76.166,43.858c-1.288,0.746-2.722,1.291-3.634,2.571
		c-6.473,2.263-13.314,2.575-19.986,3.785c-1.075,0.195-2.408-0.305-3.055,1.094c-1.333,0-2.667,0-4,0c-0.667-0.629-1.333-0.629-2,0
		C202.667,388,197.333,388,192,388z"/>
	<path fill="#49B8C7" d="M12.899,128.825c1.114-5.337,3.459-10.174,6.052-14.909c13.252-6.614,25.782-14.51,38.615-21.86
		c45.596-26.117,91.076-52.439,136.634-78.622C200.945,9.558,208.194,6.401,214,1c0.667,0,1.333,0,2,0
		c4.174,3.264,9.405,1.72,13.998,3.075c1.23,3.75-2.091,4.494-4.111,5.672c-11.357,6.62-22.773,13.14-34.167,19.697
		c-34.615,19.92-69.209,39.876-103.832,59.782c-22.505,12.94-45.009,25.882-67.486,38.87c-1.725,0.997-3.459,2.076-5.469,2.358
		C13.873,130.604,12.372,130.857,12.899,128.825z"/>
	<path fill="#47B7C9" d="M214,1c0.289,2.006-0.923,2.897-2.493,3.799c-19.255,11.062-38.472,22.19-57.706,33.288
		c-18.374,10.602-36.754,21.195-55.137,31.781c-19.102,10.999-38.216,21.977-57.315,32.982c-5.455,3.143-10.817,6.452-16.344,9.46
		c-1.798,0.979-3.461,3.307-6.052,1.606c2.482-6.784,5.933-13.058,9.993-19.011c8.855-2.343,16.056-7.942,23.799-12.381
		C99.627,55.652,146.424,28.63,193.24,1.64c0.287-0.165,0.529-0.398,0.76-0.64C200.667,1,207.333,1,214,1z"/>
	<path fill="#46B7CC" d="M194,1c-1.546,4.026-5.671,4.945-8.795,6.759C153.365,26.24,121.381,44.47,89.453,62.8
		C71.62,73.037,53.826,83.342,35.994,93.58c-2.156,1.238-4.212,3.501-7.049,1.324c2.711-6.013,6.715-11.158,10.885-16.19
		c10.24-3.723,19.038-10.131,28.399-15.456c32.354-18.405,64.551-37.087,96.764-55.741c1.493-0.864,5.498-0.965,2.747-4.634
		c1.773-1.67,4.61,0.192,6.261-1.884C180.667,1,187.333,1,194,1z"/>
	<path fill="#54BBB8" d="M1,210c0-3,0-6,0-9c1.15-2.159,0.141-4.512,0.604-6.732c8.526-5.439,17.424-10.242,26.18-15.288
		c13.239-7.63,26.509-15.209,39.599-23.12c5.879-0.729,11.772-0.388,17.655-0.281c3.206,0.059,5.429,1.324,4.927,5.087
		c-0.26,1.241-1.137,1.92-2.195,2.516c-26.765,15.064-53.215,30.677-79.917,45.851C5.712,210.251,3.598,211.909,1,210z"/>
	<path fill="#78C689" d="M389,210c-2.202,1.566-0.255,4.433-1.933,6.164c-1.661-2.221-3.447-1.777-5.594-0.573
		c-14.017,7.859-27.799,16.127-41.827,23.963c-1.568,0.876-2.205,2.388-3.146,3.733c-1.067,1.526-1.866,0.818-2.465-0.504
		c-0.91-7.789-0.785-15.575-0.105-23.359c0.269-0.793,0.67-1.503,1.47-1.887c16.27-7.813,31.271-17.89,47.161-26.375
		c1.76-0.94,3.695-3.446,5.906-0.488c0.302,3.772-0.569,7.596,0.532,11.327C389,204.667,389,207.333,389,210z"/>
	<path fill="#75C58D" d="M387.917,190c-8.856,3.81-16.792,9.296-25.214,13.9c-7.419,4.055-14.597,8.552-21.983,12.67
		c-1.58,0.881-3.156,2.749-5.419,1.43c-1.46-0.887-1.705-2.397-1.721-3.855c-0.083-7.191-0.591-14.392,0.305-21.558
		c0.755-1.814,2.201-2.748,2.761-0.292c1.101,4.834,3.277,3.11,5.924,1.627c12.754-7.148,25.337-14.591,38.037-21.832
		c1.939-1.106,3.86-2.918,6.348-1.09c1.483,2.818,0.025,6.304,2.046,9c0,2.333,0,4.667,0,7
		C387.998,187.769,389.005,189.262,387.917,190z"/>
	<path fill="#51BABC" d="M65.999,157.083c-3.627,4.875-9.431,6.545-14.322,9.48c-14.008,8.405-28.243,16.431-42.39,24.605
		c-2.278,1.316-4.433,2.953-7.272,2.832C0.686,191.81,2.358,189.185,1,187c0-3.333,0-6.667,0-10c2.061-1.24,0.358-3.797,1.833-5.242
		c4.418-0.7,7.844-3.5,11.567-5.607c5.777-3.268,11.423-6.77,17.3-9.863c2.045-1.076,4.119-2.271,6.616-1.451
		c6.87,1.334,13.805,0.325,20.696,0.669C61.42,155.627,64.016,155.034,65.999,157.083z"/>
	<path fill="#56BCB5" d="M1,210c6.815-0.526,11.735-5.205,17.264-8.301c21.147-11.842,42.004-24.202,63.005-36.305
		c2.392-1.379,4.427-3.686,7.587-3.395c2.418,2.754,1.581,5.9,1.094,9.001c-3.101,3.951-7.925,5.315-12.018,7.71
		c-21.971,12.856-44.061,25.509-66.164,38.137c-2.65,1.514-5.171,3.775-8.66,3.129C1.706,217.148,2.91,213.709,1,211
		C1,210.667,1,210.333,1,210z"/>
	<path fill="#ABDCB6" d="M387.917,190c0.166-1.07-0.179-2.325,1.083-3c0,5,0,10,0,15C386.85,198.161,388.624,193.969,387.917,190z"
		/>
	<path fill="#77C9C9" d="M1,187c1.968,2.097,0.568,4.682,1.015,6.999C1.568,196.317,2.957,198.901,1,201C1,196.333,1,191.667,1,187z
		"/>
	<path fill="#7BC784" d="M335.301,244c0.183-6.336,6.177-6.64,9.855-8.879c12.32-7.501,25.108-14.229,37.493-21.627
		c4.141-2.473,4.454-0.714,4.418,2.669c-0.014,6.191-1.156,12.201-2.884,18.118c-20.452,10.813-40.208,22.851-60.274,34.342
		c-48.235,27.622-96.337,55.475-144.541,83.15c-15.142,8.693-30.315,17.336-45.361,26.197c-7.32-1.866-14.225-4.793-20.944-8.196
		c0.057-3.586,3.192-4.437,5.477-5.777c17.521-10.277,35.149-20.371,52.769-30.477c32.206-18.471,64.32-37.1,96.533-55.558
		c4.189-2.4,8.45-4.68,12.175-7.805c2.236-1.37,4.764-1.239,7.242-1.529c15.92-1.861,30.172-7.814,43.001-17.417
		C332.858,249.266,333.023,245.968,335.301,244z"/>
	<path fill="#7FC880" d="M134.007,377.969c2.589-4.55,7.594-5.802,11.655-8.175c26.199-15.311,52.534-30.39,78.843-45.512
		c27.318-15.701,54.677-31.33,81.981-47.056c22.989-13.24,45.887-26.641,68.936-39.774c2.624-1.495,5.081-4.267,8.761-3.172
		c-1.191,8.649-3.627,16.946-7.041,24.968c-1.875-2.298-3.4-0.1-4.702,0.63c-12.296,6.9-24.516,13.935-36.736,20.967
		c-18.689,10.754-37.359,21.541-56.042,32.306c-18.254,10.518-36.509,21.032-54.77,31.536c-19.41,11.165-38.873,22.239-58.19,33.562
		c-2.627,1.54-7.013,1.794-6.75,6.525C151.124,383.188,142.349,381.403,134.007,377.969z"/>
	<path fill="#87CB75" d="M237.041,383.121c-0.129-2.367,1.773-2.926,3.346-3.835c25.305-14.615,50.598-29.254,75.903-43.869
		c5.178-2.99,10.362-5.974,15.622-8.814c1.477-0.798,2.99-2.459,4.981-0.929c-20.042,22.356-44.32,38.534-72.205,49.421
		C255.719,378.595,246.543,381.43,237.041,383.121z"/>
	<path fill="#4BB8C4" d="M12.899,128.825c2.173,2.266,3.764-0.171,5.176-0.964c14.472-8.128,28.845-16.432,43.231-24.712
		c18.7-10.763,37.385-21.551,56.079-32.325c18.264-10.526,36.528-21.051,54.797-31.57c16.973-9.772,33.969-19.503,50.906-29.337
		c2.608-1.514,6.063-2.183,6.909-5.842c7.204,0.796,14.153,2.651,20.974,5.04c0.299,2.948-1.999,4.027-3.948,5.144
		c-35.828,20.515-71.536,41.237-107.356,61.766c-27.442,15.727-54.744,31.698-82.275,47.269c-2.198,1.243-3.837,3.173-5.946,4.511
		c-4.009,1.518-8.491-0.714-12.38,1.589c-1.108,1.686-0.514,3.861-1.601,5.546c-8.335,5.392-17.166,9.933-25.75,14.897
		c-1.575,0.911-3.856,2.437-4.807-0.986C7.868,141.864,10.097,135.259,12.899,128.825z"/>
	<path fill="#4EB9C0" d="M51.999,126.996c0.501-3.431,3.658-4.079,5.968-5.419c23.688-13.747,47.423-27.414,71.169-41.063
		c20.87-11.996,41.768-23.942,62.657-35.904c18.439-10.56,36.885-21.109,55.32-31.676c1.612-0.924,2.901-2.215,3.859-3.819
		c5.875,1.474,11.62,3.319,17.059,6.029c2.755,3.145-0.643,4.058-2.178,4.989c-7.114,4.316-14.332,8.467-21.559,12.597
		c-39.026,22.3-77.887,44.886-116.887,67.23c-12.422,7.117-25.338,13.536-37.062,21.652c-8.644,5.984-17.415,7.459-27.197,6.634
		C59.425,127.932,55.49,129.381,51.999,126.996z"/>
	<path fill="#54BBB7" d="M293.134,27.701c4.687,2.139,8.88,5.048,12.882,8.255c1.354,2.961-1.101,3.81-2.851,4.82
		c-22.044,12.721-44.1,25.424-66.144,38.145c-25.934,14.966-52.123,29.506-77.678,45.105c-5.358,3.271-10.42,4.692-16.348,4.247
		c-5.597-0.42-11.289,0.983-16.811-0.874c-0.962-3.547,1.944-4.575,4.073-5.81c19.7-11.431,39.462-22.757,59.183-34.152
		c34.113-19.712,68.469-39.003,102.299-59.205C292.167,27.977,292.653,27.835,293.134,27.701z"/>
	<path fill="#51BABB" d="M293.134,27.701c-2.023,3.849-6.129,4.946-9.482,6.905c-21.179,12.372-42.445,24.596-63.707,36.824
		c-20.835,11.982-41.7,23.912-62.552,35.862c-9.204,5.275-18.419,10.53-27.607,15.833c-1.597,0.922-2.904,2.21-3.786,3.871
		c-1.095,1.26-2.604,1.364-4.092,1.354c-6.767-0.045-13.54,0.366-20.291-0.227c-2.446-0.812-2.128-2.205-0.636-3.649
		c1.805-1.748,3.964-3.047,6.131-4.282c49.913-28.441,99.496-57.457,149.41-85.896c7.805-4.447,15.373-9.312,23.467-13.248
		C284.956,22.11,289.04,24.916,293.134,27.701z"/>
	<path fill="#5EBEAB" d="M334.992,61.178c4.794,3.225,7.534,8.266,11.108,12.568c1.282,3.698-1.897,4.598-3.966,5.869
		c-9.199,5.647-18.695,10.791-28.033,16.206c-16.376,9.496-32.774,18.953-49.199,28.363c-2.754,1.578-5.277,3.438-7.677,5.495
		c-9.999,3.708-19.476,8.324-27.616,15.403c-2.259,1.964-4.363,4.057-6.447,6.188c-1.404,1.435-3.225,1.825-4.122-0.099
		c-2.895-6.212-6.82-12.059-7.377-19.179c28.694-16.829,57.598-33.301,86.447-49.867C310.369,75.085,322.367,67.577,334.992,61.178z
		"/>
	<path fill="#6EC395" d="M379.028,134.937c2.715,5.728,3.555,11.966,4.908,18.065c-6.195,5.441-13.877,8.462-20.791,12.732
		c-14.015,8.656-28.807,16.001-42.577,25.089c-7.089,1.105-14.23,0.556-21.332,0.421c-5.06-0.096-8.498,1.698-11.117,5.926
		c-3.227,5.211-7.523,9.687-10.641,14.989c-0.497,1.259-1.241,2.391-2.38,3.095c-10.504,6.494-21.063,12.895-32.169,18.344
		c-5.792-3.587-8.901-8.775-9.281-15.589c29.522-16.984,59.028-34.003,88.543-51.007c16.133-9.294,32.318-18.496,48.395-27.887
		C373.301,137.531,375.883,135.658,379.028,134.937z"/>
	<path fill="#5BBDAF" d="M334.992,61.178c-4.3,5.068-10.615,7.063-16.085,10.259c-33.955,19.844-68.061,39.43-102.114,59.106
		c-1.454,0.84-2.917,1.624-4.68,1.453c-3.807-3.561-8.464-3.638-13.318-3.604c-5.583,0.039-11.209,0.664-16.759-0.492
		c-0.987-0.52-1.693-1.146-0.584-2.207c0.358-0.343,0.858-0.631,1.338-0.614c13.809,0.498,23.17-9.242,33.923-15.302
		c34.647-19.527,69.053-39.489,103.456-59.449c0.878-0.509,1.787-0.879,2.773-1.083C327.692,52.481,331.282,56.889,334.992,61.178z"
		/>
	<path fill="#6BC29A" d="M379.028,134.937c-4.339,4.211-9.927,6.495-15.027,9.467c-28.382,16.536-56.898,32.84-85.363,49.234
		c-13.082,7.535-26.148,15.098-39.231,22.632c-1.734,0.998-3.514,1.928-5.622,1.789c-3.915-3.417-3.939-7.916-3.499-12.545
		c6.464-4.982,13.923-8.313,20.899-12.453c19.015-11.286,38.423-21.897,57.368-33.304c0.156-0.048,0.379-0.179,0.467-0.117
		c5.763,4.054,8.415-0.74,11.214-4.194c3.094-3.818,7.004-7.099,8.634-11.989c8.174-6.232,17.525-10.514,26.273-15.796
		c4.096-2.473,8.302-4.772,12.455-7.154c1.681-0.964,3.302-2.328,5.496-1.555C376.019,123.929,377.41,129.475,379.028,134.937z"/>
	<path fill="#50BABE" d="M279.989,21.05c-4.79,5.345-11.579,7.612-17.53,11.085c-36.711,21.426-73.571,42.596-110.401,63.816
		c-16.543,9.532-33.323,18.655-49.539,28.751c-1,0.623-2.049,1.121-2.518,2.295c-2.856,2.417-6.646,0.678-9.708,2.198
		c-16.473,0.833-32.953,0.299-49.43,0.301c-1.341,0-2.651-0.298-3.727-1.213c4.742-2.881,9.939-0.506,14.863-1.287
		c1.166,0.001,2.332,0.004,3.497,0.004c24.221,0.004,24.043-0.295,44.394-12.414c23.525-14.01,47.413-27.408,71.127-41.101
		c23.138-13.361,46.245-26.775,69.385-40.133c7.62-4.399,15.377-8.565,22.893-13.132c1.889-1.148,5.524-1.226,4.736-5.075
		C272.432,16.272,276.294,18.493,279.989,21.05z"/>
	<path fill="#58BCB3" d="M322.941,49.245c-4.064,4.625-9.843,6.679-14.948,9.642c-35.73,20.74-71.765,40.963-107.255,62.101
		c-6.476,3.857-13.008,4.549-19.746,5.975c0.195,4.706-2.786,8.001-5.14,11.578c-1.246,0.585-2.481,0.596-3.694-0.081
		c-2.177-3.396,1.295-5.808,1.417-8.978c-1.237-0.792-3.148,0.08-4.443-1.154c0.04-3.842,3.299-5.088,5.803-6.53
		c24.625-14.175,49.203-28.432,73.86-42.552c20.329-11.642,40.563-23.45,60.942-35.005c1.66-0.941,3.251-2.553,5.476-1.324
		C318.242,44.473,320.564,46.892,322.941,49.245z"/>
	<path fill="#57BCB5" d="M315.212,42.918c-9.586,4.22-18.247,10.113-27.331,15.231c-19.369,10.913-38.525,22.204-57.794,33.296
		c-18.265,10.513-36.582,20.935-54.82,31.494c-2.266,1.312-4.187,3.219-6.267,4.851c-1.732,2.077-4.176,1.799-6.445,1.806
		c-21.703,0.065-43.405,0.065-65.108,0c-2.269-0.007-4.713,0.27-6.447-1.802c2.881-1.61,6.01-0.424,9-0.796
		c8.667,0,17.333,0,26-0.001c0.832,0.001,1.664,0.003,2.496,0.003c24.181,0.005,24.008-0.285,44.365-12.4
		c23.513-13.992,47.367-27.411,71.079-41.068c19.977-11.506,39.958-23.004,59.956-34.474c1.269-0.728,2.077-1.613,2.12-3.102
		C309.435,37.81,312.527,40.095,315.212,42.918z"/>
	<path fill="#61BFA7" d="M256.998,128.818c4.26-5.473,10.803-7.602,16.462-10.92c22.475-13.174,45.159-25.992,67.695-39.062
		c2.002-1.161,4.811-1.941,4.945-5.091c4.244,4.612,8.051,9.542,10.987,15.106c-0.674,3.747-4.226,4.281-6.75,5.771
		c-17.044,10.062-34.358,19.658-51.376,29.766c-2.541,1.509-4.725,3.786-7.957,3.934c-10.458-0.216-20.924-0.844-31.28,1.327
		C258.748,129.854,257.724,129.691,256.998,128.818z"/>
	<path fill="#65C0A2" d="M291.773,127.103c8.703-5.02,17.411-10.029,26.106-15.061c12.59-7.288,25.172-14.588,37.745-21.904
		c0.55-0.32,0.977-0.852,1.462-1.285c3.296,4,5.771,8.493,7.897,13.194c1.291,2.277-0.673,2.983-1.99,3.744
		c-15.552,8.986-31.06,18.048-46.69,26.898c-1.455,0.824-3.017,1.413-4.748,1.347c-6.02-1.446-11.795-3.76-17.873-5.007
		C292.712,128.828,291.862,128.286,291.773,127.103z"/>
	<path fill="#72C491" d="M321,190.05c2.792-4.539,7.878-5.897,12.061-8.37c16.068-9.5,32.33-18.671,48.537-27.935
		c0.694-0.397,1.556-0.502,2.339-0.743c2.31,5.78,1.891,12.019,3.018,17.998c-4.624,0.094-7.809,3.417-11.48,5.44
		c-11.837,6.526-23.418,13.519-35.087,20.35c-3.002,1.757-4.671,1.378-4.402-2.535c0.079-1.143,0.146-2.339-0.787-3.264
		C330.416,191.432,325.586,192.583,321,190.05z"/>
	<path fill="#68C19E" d="M311.913,133.033c9.341-3.513,17.332-9.53,26.087-14.139c8.471-4.46,16.612-9.547,24.909-14.339
		c1.025-0.592,2.076-1.098,2.074-2.509c3.754,5.131,5.668,11.146,8.11,16.906c-14.73,8.359-29.46,16.718-44.19,25.077
		c-1.654,0.492-2.858-0.515-3.994-1.374c-3.398-2.568-6.931-4.893-10.738-6.817C313.068,135.281,311.696,134.742,311.913,133.033z"
		/>
	<path fill="#78C689" d="M280,270.936c-3.06,4.773-8.458,6.3-12.95,8.906c-34.118,19.794-68.388,39.324-102.599,58.958
		c-15.235,8.744-30.467,17.495-45.633,26.356c-2.097,1.225-4.476,2.291-5.756,4.618c-6.802-2.901-13.358-6.251-19.372-10.594
		c1.016-3.01,3.825-4.053,6.215-5.415c47.65-27.161,94.992-54.858,142.647-82.009c3.168-1.805,5.951-4.246,9.385-5.616
		C261.232,268.1,270.871,268.027,280,270.936z"/>
	<path fill="#75C58D" d="M251.032,266.875c-3.679,5.099-9.669,6.874-14.731,9.826c-29.524,17.22-59.268,34.063-88.88,51.133
		c-17.963,10.355-35.822,20.89-53.729,31.345c-5.877-2.879-11.091-6.722-16.014-10.991c0.617-2.417,2.787-3.191,4.62-4.249
		c28.254-16.3,56.506-32.603,84.792-48.849c20.06-11.521,40.005-23.243,60.158-34.601c1.782-1.004,3.03-2.583,4.645-3.749
		C238.796,259.126,245.424,262.037,251.032,266.875z"/>
	<path fill="#6EC396" d="M62.993,336.003c-4.29-3.639-8.32-7.531-11.743-12.016c1.85-2.999,5.024-4.246,7.877-5.889
		c25.342-14.595,50.66-29.231,76.03-43.776c0.713-0.409,1.458-0.799,2.317-1.894c-3.454-0.407-6.69,0.136-9.822-0.371
		c-1.342-0.217-3.76-0.143-1.967-2.789c5.697-1.401,11.501-0.772,17.221-0.577c4.949,0.169,8.69-1.031,11.027-5.549
		c19.317-10.289,37.959-21.781,57.067-32.458c4.69,4.185,7.46,9.587,9.693,15.331c-3.437,4.558-8.791,6.392-13.453,9.07
		c-45.845,26.34-91.591,52.854-137.455,79.16C67.744,335.416,65.797,337.533,62.993,336.003z"/>
	<path fill="#72C491" d="M62.993,336.003c8.98-3.56,16.89-9.082,25.222-13.82c19.306-10.976,38.529-22.1,57.775-33.182
		c18.527-10.669,37.06-21.329,55.551-32.059c6.277-3.643,12.815-6.866,18.618-11.293c5.073,2.679,9.261,6.268,11.836,11.515
		c-1.63,5.266-7.001,5.817-10.785,8.054c-25.43,15.028-51.058,29.722-76.659,44.459c-20.858,12.007-41.769,23.92-62.649,35.886
		c-1.437,0.824-2.817,1.748-4.224,2.626C72.244,344.775,67.58,340.436,62.993,336.003z"/>
	<path fill="#5BBDAF" d="M9.19,248.997c-1.887-5.195-3.151-10.545-3.991-16.001c3.233-3.813,7.922-5.449,12.054-7.85
		c21.722-12.624,43.469-25.204,65.334-37.578c2.135-1.209,4.597-4.14,7.324-0.59c0.94,5.64,0.813,11.282,0.096,16.923
		c-0.639,1.952-2.431,2.599-4.002,3.503c-23.19,13.35-46.41,26.647-69.568,40.053C14.267,248.713,12.106,250.878,9.19,248.997z"/>
	<path fill="#5EBEAB" d="M9.19,248.997c7.304-1.588,12.936-6.436,19.21-9.988c18.99-10.749,37.851-21.727,56.784-32.577
		c1.128-0.646,2.444-0.963,3.673-1.433c3.219,6.031,1.386,12.391,1.228,18.635c-0.339,1.186-1.174,1.91-2.234,2.504
		c-22.559,12.649-44.787,25.877-67.356,38.506c-1.597,0.894-3.126,2.763-5.375,1.352C12.498,260.555,10.602,254.86,9.19,248.997z"/>
	<path fill="#61BFA7" d="M15.119,265.996c11.692-6.584,23.418-13.107,35.065-19.77c11.665-6.673,23.25-13.485,34.868-20.238
		c1.177-0.684,2.423-1.093,3.803-0.989c3.223,6.021,1.378,12.375,1.236,18.612c-0.375,1.405-1.46,2.084-2.672,2.73
		c-20.046,10.692-39.439,22.535-59.228,33.68c-1.842,1.037-3.541,2.584-5.941,1.913C19.347,276.856,16.892,271.579,15.119,265.996z"
		/>
	<path fill="#6BC299" d="M125,270.263c4.915,1.816,10.119-0.079,15.562,1.15c-3.12,4.335-7.902,5.751-11.877,8.069
		c-23.165,13.508-46.476,26.766-69.788,40.02c-2.572,1.462-4.664,3.741-7.648,4.484c-2.997-3.133-6.087-6.187-8.327-9.953
		c0.602-2.443,2.803-3.134,4.643-4.193c20.197-11.632,40.383-23.284,60.6-34.881c1.112-0.638,2.422-1.088,3.13-2.391
		c-1.366-0.737-2.981-0.152-4.277-0.93c-1.982-1.189-1.168-1.986,0.4-2.677C113.335,268.73,119.36,266.932,125,270.263z"/>
	<path fill="#58BCB3" d="M88.856,185.999c-9.659,4.089-18.342,9.961-27.415,15.108c-18.186,10.317-36.234,20.878-54.352,31.316
		c-0.556,0.32-1.257,0.388-1.89,0.573c-0.989-4.293-2.01-8.581-2.092-13.02c23.243-12.434,45.771-26.121,68.694-39.116
		c5.56-3.152,10.688-7.232,17.056-8.861C91.472,176.666,91.472,181.332,88.856,185.999z"/>
	<path fill="#65C0A2" d="M22.251,281.933c19.316-11.156,38.612-22.346,57.97-33.427c2.684-1.536,5.283-3.513,8.635-3.507
		c3.132,5.349,1.39,11.056,1.237,16.641c-0.416,1.582-1.646,2.396-2.973,3.15c-17.473,9.923-34.889,19.944-52.262,30.04
		c-1.423,0.827-2.877,1.744-4.673,1.121C27.036,291.564,24.44,286.864,22.251,281.933z"/>
	<path fill="#68C19E" d="M30.186,295.951c16.874-9.732,33.744-19.47,50.626-29.188c2.571-1.48,5.091-3.093,8.045-3.763
		c1.862,1.403,1.106,3.692,1.878,5.455c0.29,0.406,0.579,0.847,1.04,1.036c1.465,0.599,3.836,0.081,4.164,2.048
		c0.334,2.001-1.616,3.163-3.173,4.072c-17.336,10.116-34.752,20.095-52.145,30.112c-1.148,0.661-2.366,1.324-3.685,0.301
		C34.194,302.996,32.05,299.567,30.186,295.951z"/>
	<path fill="#69C29C" d="M36.936,306.024c11.063-6.242,22.146-12.447,33.181-18.738c7.466-4.256,14.863-8.631,22.289-12.957
		c1.121-0.653,2.421-1.123,2.832-2.724c-1.756-1.644-4.662,0.619-6.199-1.706c5.703-2.159,11.37-2.676,16.961,0.364
		c2.518,1.693,5.531-0.036,9.546,1.733c-24.75,14.327-48.687,28.183-72.624,42.038C40.512,311.674,38.497,309.019,36.936,306.024z"
		/>
	<path fill="#44B6CD" d="M167.739,2.884c1.223,0.343,3.097-0.524,3.609,0.904c0.703,1.963-1.526,2.328-2.648,2.983
		c-14.463,8.435-28.98,16.776-43.488,25.133c-18.531,10.673-37.06,21.35-55.603,32.002c-8.481,4.872-16.969,9.736-25.522,14.481
		c-1.206,0.669-2.678,2.563-4.257,0.329c4.847-7.362,10.576-13.969,17.065-19.924c7.93-2.702,14.738-7.553,21.899-11.673
		c21.459-12.346,42.964-24.614,64.333-37.115c1.399-0.819,3.086-1.324,3.775-3.041C153.588,4.278,160.761,4.076,167.739,2.884z"/>
	<path fill="#43B6CF" d="M146.902,6.962c3.275,0.944,0.662,1.657-0.159,2.145c-6.682,3.969-13.38,7.912-20.118,11.784
		C104.969,33.335,83.31,45.772,61.593,58.106c-1.292,0.734-2.799,2.921-4.698,0.686c20.21-21.668,44.845-36.501,72.422-46.733
		C135.04,9.935,140.886,8.13,146.902,6.962z"/>
	<path fill="#4EB9C0" d="M6.908,148.849c1.957,2.34,3.584,0.349,5.128-0.528c7.405-4.206,14.732-8.548,22.133-12.762
		c0.796-0.453,1.889-0.386,2.845-0.56c2.472,6.666,2.47,13.333,0.002,20c-10.03,4.813-19.365,10.857-29.012,16.349
		c-1.567,0.892-3.251,2.864-5.169,0.41C3.183,163.943,4.453,156.29,6.908,148.849z"/>
	<path fill="#72C491" d="M276.124,211.667c10.625,0.11,21.251,0.221,31.876,0.331c1.365,2.999-1.171,3.758-2.902,4.76
		c-13.121,7.593-26.2,15.26-39.413,22.691c-2.615,1.47-5.014,3.279-7.701,4.615c-6.252-2.005-11.104-5.953-15.199-10.952
		c9.532-5.605,19.078-11.185,28.584-16.834C273.289,215.136,275.714,214.41,276.124,211.667z"/>
	<path fill="#6AC29C" d="M300.973,155.122c3.327,0.495,5.728,2.578,8.094,4.721c-2.283,4.145-6.873,5.1-10.495,7.22
		c-21.052,12.323-42.296,24.32-63.432,36.501c-1.331,0.767-2.509,1.593-4.104,1.436c-0.537-3.345-1.576-6.678-0.222-10.065
		c22.042-12.99,44.347-25.523,66.445-38.416C298.424,155.84,299.681,155.444,300.973,155.122z"/>
	<path fill="#5CBEAF" d="M175.886,137.998c-2.898,7.837-6.095,15.546-9.864,23.01c-13.154,8.322-26.889,15.645-40.351,23.439
		c-1.529,0.885-3.463,2.368-5.132-0.066c-0.051-3.165-0.016-6.328-0.019-9.487c0.336-2.09,2.309-2.146,3.681-2.939
		c8.349-4.822,16.958-9.208,24.797-14.878c12.239,2.591,18.286-3.526,20.868-14.706c0.355-1.539,1.392-2.92,2.113-4.374
		C173.282,137.996,174.584,137.997,175.886,137.998z"/>
	<path fill="#6BC29A" d="M206.09,215.85c1.652,5.021,3.303,10.041,4.955,15.061c-2.474,4.17-7.197,5.143-10.936,7.4
		c-12.737,7.691-25.709,14.995-38.626,22.385c-1.985,1.135-3.953,2.522-6.454,2.303c3.24-9.16,6.864-18.164,10.982-26.967
		c2.312,0.419,4.16-0.643,6.045-1.772c8.969-5.375,18.142-10.399,27.192-15.636C201.368,217.398,203.462,215.909,206.09,215.85z"/>
	<path fill="#68C19E" d="M300.973,155.122c-6.364,5.401-14.07,8.618-21.141,12.856c-14.642,8.778-29.518,17.167-44.296,25.719
		c-1.464,0.847-2.971,1.502-4.723,1.238c-0.107-6.001,1.066-11.709,3.888-17.041c14.028-7.872,27.952-15.925,41.879-23.974
		c1.822-1.053,4.069-1.838,3.486-4.697C287.465,149.67,294.69,150.728,300.973,155.122z"/>
	<path fill="#75C58E" d="M257.984,244.063c2.036-4.819,7.17-5.54,10.946-7.846c11.824-7.221,24.002-13.863,36.063-20.694
		c1.467-0.831,3.021-1.479,3.007-3.524c2.808-0.62,3.358,0.912,3.292,3.281c-0.126,4.572-0.128,9.148-0.182,13.722
		c-9.541,6.029-19.626,11.125-29.239,17.031c-0.986,0.606-2.086,1.043-2.871,1.944C271.651,248.515,264.578,247.576,257.984,244.063
		z"/>
	<path fill="#68C19E" d="M206.09,215.85c-10.719,6.228-21.44,12.454-32.155,18.689c-1.573,0.915-3.093,1.928-4.691,2.796
		c-1.528,0.83-2.913,1.007-3.233-1.302c2.897-8.234,6.034-16.37,9.874-24.219c8.767-3.342,16.305-8.974,24.617-13.148
		c2.545-1.278,1.454-4.834,4.273-5.59C205.204,200.668,204.253,208.34,206.09,215.85z"/>
	<path fill="#5DBEAC" d="M121.071,185.002c9.672-4.033,18.146-10.269,27.455-14.95c5.868-2.95,10.751-7.808,17.496-9.045
		c-2.515,7.206-5.517,14.204-8.954,21.016c-10.334,5.737-20.605,11.583-30.829,17.514c-1.765,1.024-4.171,2.902-5.727-0.59
		C120.852,194.301,119.81,189.605,121.071,185.002z"/>
	<path fill="#65C0A2" d="M204.775,193.076c-0.139,5.866-4.927,7.327-8.971,9.547c-5.375,2.951-10.668,6.052-16.066,8.96
		c-1.117,0.602-2.462,2.215-3.853,0.23c2.679-8.553,6.366-16.695,10.098-24.819c4.905-2.493,9.213-6.262,14.947-6.978
		C202.466,184.295,205.919,188.009,204.775,193.076z"/>
	<path fill="#65C0A2" d="M280.067,149.223c4.896,2.563,0.357,3.78-0.959,4.603c-6.048,3.78-12.294,7.245-18.476,10.811
		c-6.758,3.899-13.515,7.8-20.292,11.665c-1.732,0.988-3.493,2.003-5.638,1.592c3.872-14.585,21.545-28.073,37.883-28.835
		C275.072,148.943,277.573,149.16,280.067,149.223z"/>
	<path fill="#60BFA8" d="M121.071,199.998c6.716-1.291,11.57-6.175,17.448-9.096c4.884-2.427,9.542-5.319,14.229-8.125
		c1.416-0.848,2.845-0.722,4.32-0.754c-1.797,5.557-4.049,10.921-6.808,16.07c-7.9,4.793-16.02,9.208-24.031,13.809
		c-1.645,0.945-3.828,3.136-5.716,0.006C120.847,207.942,119.83,203.917,121.071,199.998z"/>
	<path fill="#5BBEB1" d="M148.999,157.076c-0.04,1.677-1.057,2.78-2.363,3.534c-7.246,4.188-14.506,8.352-21.819,12.419
		c-1.093,0.608-2.493,0.662-3.751,0.973c-0.938-5.586-0.813-11.177-0.087-16.771C130.315,156.586,139.657,156.879,148.999,157.076z"
		/>
	<path fill="#62BFA6" d="M121.072,212.999c8.139-3.61,15.447-8.721,23.256-12.929c1.909-1.029,3.614-2.316,5.93-1.976
		c-1.254,4.179-2.923,8.18-5.116,11.958c-6.24,4.316-13.038,7.684-19.594,11.461c-1.517,0.874-3.491,2.338-5.022-0.261
		C120.779,218.502,119.925,215.685,121.072,212.999z"/>
	<path fill="#68C29F" d="M121.072,212.999c-0.001,2.998-0.002,5.997-0.004,8.995c2.059,2.789,1.236,5.997,1.331,9.064
		c-0.028,2.108-0.134,4.224-0.087,6.341c0.1,4.48,0.438,4.65,4.388,2.786c1.934-0.913,3.706-3.028,6.194-1.189
		c-3.859,9.355-7.717,18.711-11.691,28.345c-1.564-1.218-0.981-2.432-0.982-3.409c-0.039-33.999-0.048-67.998-0.004-101.997
		c0.002-1.565-0.727-3.344,0.763-4.704c0.028,5.591,0.057,11.181,0.086,16.772c0.002,3.667,0.003,7.333,0.005,11
		c0,4.999,0,9.998,0,14.997C121.071,204.332,121.072,208.666,121.072,212.999z"/>
	<path fill="#77C68B" d="M279,247.975c0.035-1.263,0.603-2.188,1.707-2.82c9.016-5.163,18.012-10.363,27.064-15.461
		c0.944-0.531,2.218-0.476,3.339-0.693c0.519,9.831,0.37,10.109-8.641,14.021C294.989,246.27,287.291,248.542,279,247.975z"/>
	<path fill="#64C0A4" d="M121.068,231.996c0-3.334-0.001-6.667,0-10.001c7.231-2.48,13.189-7.344,19.956-10.705
		c1.365-0.678,2.559-1.425,4.119-1.238c-1.271,4.529-3.364,8.717-5.36,12.946c-4.419,3.293-9.404,5.643-14.117,8.446
		C124.308,232.25,122.773,233.306,121.068,231.996z"/>
	<path fill="#65C0A2" d="M121.068,231.996c5.002-1.259,8.864-4.71,13.336-6.991c1.745-0.89,3.287-2.121,5.378-2.007
		c-2.297,5.333-4.593,10.666-6.889,15.999c-2.766-0.35-4.414,1.889-6.57,2.915c-5.324,2.533-5.302,2.619-5.317-3.047
		C121.001,236.575,121.046,234.285,121.068,231.996z"/>
	<path fill="#64C0A7" d="M200.931,180.017c-4.94,2.418-9.157,6.382-14.947,6.978c2.765-7.129,5.531-14.257,8.855-22.825
		C197.217,170.356,199.074,175.186,200.931,180.017z"/>
</g>
</svg>
